<?xml version="1.0"?><svg version="1.2" baseProfile="tiny-ps" viewBox="0 0 300 300" xmlns="http://www.w3.org/2000/svg" xmlns:xlink="http://www.w3.org/1999/xlink"><title>Nymara</title><g><g transform="matrix(.1 0 0 -.1 0 300)"><path d="M2136 2564c-226-41-457-152-666-321-85-69-281-265-362-363-142-170-279-376-376-565-28-56-58-110-66-120l-15-20-1 19c0 11 16 123 35 250 49 329 85 611 85 672v53l-16 15c-20 21-26 20-59-6l-28-22-39-85c-22-46-172-408-335-804L-2 548l9-9 9-9 22 16 22 15 31 67c17 37 110 258 206 492 266 648 374 904 384 914l9 10v-35c0-129-153-1108-195-1244-8-27-15-60-15-73v-23l16-6 16-6 18 19 19 19 17 65c26 103 100 280 199 475 106 211 185 339 314 513l95 127 170 170 171 170 95 67c185 131 369 210 560 244l95 16 135-5 135-5 100-27c55-15 113-30 128-32l29-6-4 19-3 18-48 18c-26 10-91 27-146 38l-99 20-139-1-138-1-79-14zm318-1137-48-33-33-48c-18-26-38-65-44-87l-12-38 13-16 12-15h69l29 15c15 8 39 29 52 46l25 31 17-26 16-26h26c14 0 42 8 61 17l35 16 29 40c28 39 38 77 20 77-5 0-21-17-36-37-35-47-65-72-86-73h-17l-6 15c-3 8-3 28 0 44l6 29-12 7-11 7-22-6-22-7-48-59-48-60h-29v13c0 22 59 115 87 137l27 21 33-6 33-6 6 16 6 15-12 15-12 15h-56l-48-33zm-301-29c-4-7-22-51-39-98l-30-85-34-22-33-23-14 12-14 11 3 41 3 41-21 3-20 3-63-71c-34-38-67-70-72-70-29 0 13 89 66 140l36 35h72l4 11c2 7-4 19-13 28l-16 17-32-7c-39-8-81-39-126-94-19-23-54-61-76-86l-41-44h-36l8 53c4 28 8 61 9 72l1 20-21 3-21 3-53-43c-29-24-61-49-71-56l-18-14 2 29 2 28-25 3-25 3-69-57-68-57 7 61 7 62h-41l-16-54-16-54-45-42-46-42-8 8-8 9 13 70 12 70-13 14-13 14-15-12c-8-7-28-40-44-74l-29-62-36-38-36-39-13 4-13 5 1 49c1 27 5 66 9 88l8 38-19-3-19-4-19-39c-10-21-21-58-24-82l-5-44 17-25 16-25h67l37 25c43 29 46 30 46 12v-14l-132-88C770 803 669 727 601 659l-54-54-14-33-14-34 16-25 17-25 34-14 35-15 78-6 78-6 54 13c68 16 116 40 153 76l29 29 28 60 28 60 26 135c14 74 28 145 30 157l5 22 45 31 45 31-2-32-3-32 13-4 13-5 84 89 83 88 8-8 8-7-17-35c-9-20-17-45-17-55v-20h40l90 93 90 92-6-60-6-61 16-13 15-13 28 6c15 4 39 15 52 25l24 18 18-18 19-19h20c34 0 83 25 114 58l29 31 24-25 24-26 27 8c15 4 43 7 63 6l35-1 23 47c12 26 36 68 53 94l30 47 33 21c18 11 37 20 44 20h11v-25c0-27 9-32 28-13l12 12v66h-30c-16 0-45-8-64-17l-36-16-18 16c-22 20-28 21-39 5zM1050 914c0-14-9-72-21-127l-20-102-26-58-26-58-33-29-34-29-42-12-43-11h-65l-65 1-39 13-39 13-11 18-11 18 21 37 21 37 74 63c73 62 337 251 352 252 4 0 7-12 7-26zm1864 488c-6-4-16-17-23-29l-11-22 9-24c16-41 59-49 91-17l20 20v40l-20 20c-21 21-47 25-66 12z"/></g></g></svg>